<svg xmlns="http://www.w3.org/2000/svg" version="1.1" height="200px" width="400px"> <g>
  <path x="0" y="0" d="M113.5622,117.64699c8.17484,40.25717 43.76793,70.55648 86.4378,70.55648c42.66987,0 78.26296,-30.29931 86.4378,-70.55648L288.27059,117.64699c-8.20192,41.25608 -44.60472,72.35301 -88.27059,72.35301c-43.66587,0 -80.06867,-31.09694 -88.27059,-72.35301z M286.4378,82.35301c-8.17484,-40.25717 -43.76793,-70.55648 -86.4378,-70.55648c-42.66987,0 -78.26296,30.29931 -86.4378,70.55648L111.72941,82.35301c8.20192,-41.25608 44.60472,-72.35301 88.27059,-72.35301c43.66587,0 80.06867,31.09694 88.27059,72.35301z" fill="#ff9800"></path>
  <g>
    <g>
      <g fill="#ff9800">
        <path x="0" y="0" d="M73.11518,95.82331c0,0 -0.13027,-0.1178 -0.3908,-0.3534c-0.26053,-0.2356 -0.54164,-0.68001 -0.84331,-1.33321c-0.30167,-0.6532 -0.45251,-1.31139 -0.45251,-1.97457c0,-0.66318 0.06856,-1.23785 0.20568,-1.72401c0.13712,-0.48616 0.33284,-0.93493 0.58714,-1.3463c0.2543,-0.41137 0.55846,-0.7816 0.91249,-1.1107c0.35403,-0.3291 0.74794,-0.60833 1.18175,-0.8377c0.90751,-0.47868 1.89728,-0.71803 2.96934,-0.71803c1.02718,0 1.98454,0.22937 2.8721,0.68811c0.86263,0.44877 1.55074,1.07205 2.06433,1.86986c0.52356,0.83271 0.78534,1.75767 0.78534,2.77487c0,1.61057 -0.56844,2.94441 -1.70531,4.0015c-0.71304,0.66318 -1.57318,1.11942 -2.58041,1.36874c-0.50362,0.12466 -1.08701,0.18699 -1.75019,0.18699c-0.66318,0 -1.34131,-0.13089 -2.03441,-0.39267c-0.69309,-0.26178 -1.30018,-0.62827 -1.82124,-1.09948z M74.13987,88.83377c0,0 -0.09661,0.091 -0.28983,0.273c-0.19322,0.182 -0.40077,0.52231 -0.62266,1.02094c-0.22189,0.49863 -0.33284,1.04712 -0.33284,1.64548c0,0.59836 0.11468,1.15931 0.34405,1.68287c0.22937,0.52356 0.54351,0.97981 0.94241,1.36874c0.85266,0.83271 1.88731,1.24907 3.10397,1.24907c1.18175,0 2.184,-0.38893 3.00673,-1.16679c0.83271,-0.78783 1.24907,-1.76265 1.24907,-2.92446c0,-0.78783 -0.19945,-1.51833 -0.59836,-2.19148c-0.37397,-0.63825 -0.90003,-1.15183 -1.57816,-1.54076c-0.66816,-0.38893 -1.35129,-0.5834 -2.04937,-0.5834c-0.69808,0 -1.30516,0.10347 -1.82124,0.3104c-0.51608,0.20693 -0.96734,0.4924 -1.35378,0.8564z"></path>
        <path x="0" y="0" d="M107.01902,89.01903L110.24668,89.01903c1.08931,0 1.96,0.24548 2.61205,0.73644c0.70575,0.52931 1.05863,1.29068 1.05863,2.28411c0,1.03561 -0.37205,1.86027 -1.11616,2.47397c-0.70575,0.57918 -1.61096,0.86877 -2.71561,0.86877L108.0834,95.38231L108.0834,97.16587L107.01902,97.16587z M110.22942,94.41574c0.78246,0 1.4,-0.19562 1.8526,-0.58685c0.47178,-0.40657 0.70767,-0.98 0.70767,-1.72027c0,-0.70959 -0.26466,-1.25041 -0.79397,-1.62246c-0.47562,-0.3337 -1.11424,-0.50055 -1.91589,-0.50055L108.0834,89.98561L108.0834,94.41574L110.22942,94.41574z"></path>
        <polygon points="137.93,89.02 144.01,89.02 144.01,89.99 138.99,89.99 138.99,92.18 143.46,92.18 143.46,93.15 138.99,93.15 138.99,96.2 144.13,96.2 144.13,97.17 137.93,97.17 137.93,89.02"></polygon>
        <path x="0" y="0" d="M175.26682,91.52752c0,1.20822 -0.55616,2.04246 -1.66849,2.50274L175.146,97.16587L173.90902,97.16587L172.51094,94.32943c-0.37973,0.05753 -0.77671,0.0863 -1.19096,0.0863L169.20272,94.41574L169.20272,97.16587L168.13834,97.16587L168.13834,89.01903L171.48107,89.01903c1.20438,0 2.10383,0.16493 2.69835,0.49479c0.72493,0.3989 1.0874,1.07014 1.0874,2.0137z M171.46381,93.44916c0.85918,0 1.49589,-0.1189 1.91013,-0.35671c0.51014,-0.29534 0.7652,-0.79397 0.7652,-1.49589c0,-0.91288 -0.59068,-1.43068 -1.77205,-1.55342c-0.34137,-0.03836 -0.69233,-0.05753 -1.05287,-0.05753L169.20272,89.98561L169.20272,93.44916L171.46381,93.44916z"></path>
        <path x="0" y="0" d="M203.08786,89.01903L203.69197,89.01903L207.21881,97.16587L206.05662,97.16587L205.28566,95.38231L201.20649,95.38231L200.37225,97.16587L199.2791,97.16587z M204.87142,94.41574L204.13498,92.70697c-0.09205,-0.21479 -0.18219,-0.43726 -0.27041,-0.6674L203.63443,91.38944c-0.14575,-0.42192 -0.23205,-0.70959 -0.2589,-0.86301L203.30649,90.52643c-0.03068,0.15342 -0.09973,0.37205 -0.20712,0.65589c0,0 -0.09781,0.24931 -0.29342,0.74794c-0.08822,0.21479 -0.18411,0.43342 -0.28767,0.65589L201.66101,94.41574L204.87142,94.41574z"></path>
        <polygon points="234.29,89.99 231.23,89.99 231.23,89.02 238.42,89.02 238.42,89.99 235.36,89.99 235.36,97.17 234.29,97.17 234.29,89.99"></polygon>
        <polygon points="262.43,89.02 263.49,89.02 263.49,97.17 262.43,97.17 262.43,89.02"></polygon>
        <path x="0" y="0" d="M288.80343,96.13313c0,0 -0.10021,-0.09062 -0.30062,-0.27185c-0.20041,-0.18123 -0.41664,-0.52308 -0.6487,-1.02555c-0.23205,-0.50246 -0.34808,-1.00877 -0.34808,-1.5189c0,-0.51014 0.05274,-0.95219 0.15822,-1.32616c0.10548,-0.37397 0.25603,-0.71918 0.45164,-1.03561c0.19562,-0.31644 0.42959,-0.60123 0.70192,-0.85438c0.27233,-0.25315 0.57534,-0.46794 0.90904,-0.64438c0.69808,-0.36822 1.45945,-0.55233 2.28411,-0.55233c0.79014,0 1.52657,0.17644 2.20931,0.52931c0.66356,0.3452 1.19287,0.82466 1.58794,1.43835c0.40274,0.64055 0.60411,1.35205 0.60411,2.13452c0,1.2389 -0.43726,2.26493 -1.31178,3.07808c-0.54849,0.51014 -1.21013,0.86109 -1.98493,1.05287c-0.3874,0.09589 -0.83616,0.14384 -1.3463,0.14384c-0.51014,0 -1.03178,-0.10068 -1.56493,-0.30205c-0.53315,-0.20137 -1.00014,-0.48329 -1.40096,-0.84575z M289.59165,90.75656c0,0 -0.07431,0.07 -0.22294,0.21c-0.14863,0.14 -0.30829,0.40178 -0.47897,0.78534c-0.17068,0.38356 -0.25603,0.80548 -0.25603,1.26575c0,0.46027 0.08822,0.89178 0.26466,1.29452c0.17644,0.40274 0.41808,0.7537 0.72493,1.05287c0.65589,0.64055 1.45178,0.96082 2.38767,0.96082c0.90904,0 1.68,-0.29918 2.31287,-0.89753c0.64055,-0.60603 0.96082,-1.35589 0.96082,-2.24959c0,-0.60603 -0.15342,-1.16794 -0.46027,-1.68575c-0.28767,-0.49096 -0.69233,-0.88603 -1.21397,-1.1852c-0.51397,-0.29918 -1.03945,-0.44877 -1.57644,-0.44877c-0.53699,0 -1.00397,0.07959 -1.40096,0.23877c-0.39699,0.15918 -0.74411,0.37877 -1.04137,0.65877z"></path>
        <polygon points="320.42,89.02 321.36,89.02 326.6,95.45 326.6,89.02 327.55,89.02 327.55,97.17 326.66,97.17 321.37,90.69 321.37,97.17 320.42,97.17 320.42,89.02"></polygon>
      </g>
      <g fill="#146db3">
        <path x="0" y="0" d="M72.32236,102.8629L76.66792,102.8629c1.62055,0 2.92446,0.45375 3.91175,1.36126c1.02219,0.93742 1.53328,2.19148 1.53328,3.76216c0,1.66044 -0.52356,2.98928 -1.57068,3.98654c-1.03216,0.98729 -2.39342,1.48093 -4.08377,1.48093L72.32236,113.45378z M76.64548,112.19724c1.24159,0 2.22139,-0.37397 2.93942,-1.12192c0.70805,-0.73797 1.06208,-1.73772 1.06208,-2.99926c0,-1.21666 -0.39142,-2.184 -1.17427,-2.90202c-0.7629,-0.70307 -1.77013,-1.0546 -3.02169,-1.0546L73.70606,104.11944L73.70606,112.19724L76.64548,112.19724z"></path>
        <polygon points="109.94,105.31 111,105.31 111,113.45 109.94,113.45 109.94,105.31"></polygon>
        <path d="M144.15196,106.99845c-0.63671,-0.56767 -1.45561,-0.85151 -2.45671,-0.85151c-0.90904,0 -1.68,0.29918 -2.31287,0.89753c-0.64055,0.60219 -0.96082,1.35205 -0.96082,2.24959c0,0.92822 0.32986,1.71452 0.98959,2.3589c0.65589,0.64055 1.45178,0.96082 2.38767,0.96082c0.6789,0 1.35589,-0.1726 2.03096,-0.51781c0.19945,-0.09973 0.37205,-0.20904 0.51781,-0.32794L144.76182,112.56201c-0.56383,0.48329 -1.29068,0.79589 -2.18054,0.93781c-0.28767,0.04603 -0.58301,0.06904 -0.88603,0.06904c-0.60219,0 -1.16986,-0.10068 -1.70301,-0.30205c-0.53315,-0.20137 -1.00014,-0.48329 -1.40096,-0.84575c-0.40082,-0.36247 -0.71726,-0.79493 -0.94931,-1.29739c-0.23205,-0.50246 -0.34808,-1.00877 -0.34808,-1.5189c0,-0.51014 0.05274,-0.95219 0.15822,-1.32616c0.10548,-0.37397 0.25603,-0.71918 0.45164,-1.03561c0.19562,-0.31644 0.42959,-0.60123 0.70192,-0.85438c0.27233,-0.25315 0.57534,-0.46794 0.90904,-0.64438c0.69808,-0.36822 1.45945,-0.55233 2.28411,-0.55233c1.11616,0 2.0789,0.31836 2.88821,0.95507L144.15196,106.99845z"></path>
        <polygon points="168.6,105.31 174.69,105.31 174.69,106.27 169.67,106.27 169.67,108.47 174.14,108.47 174.14,109.44 169.67,109.44 169.67,112.49 174.8,112.49 174.8,113.45 168.6,113.45 168.6,105.31"></polygon>
        <path d="M200.33485,111.61845c0.71342,0.46027 1.43835,0.76329 2.17479,0.90904c0.24931,0.04986 0.50246,0.07479 0.75945,0.07479c0.25699,0 0.5226,-0.02397 0.79685,-0.07192c0.27425,-0.04795 0.51685,-0.12753 0.72781,-0.23877c0.47562,-0.25315 0.71342,-0.64246 0.71342,-1.16794c0,-0.54082 -0.3989,-0.91863 -1.19671,-1.13342c-0.23397,-0.06137 -0.48329,-0.11699 -0.74794,-0.16685L202.73978,109.67954c-1.04712,-0.18027 -1.77781,-0.44493 -2.19205,-0.79397c-0.38356,-0.31836 -0.57534,-0.74794 -0.57534,-1.28876c0,-0.73644 0.35288,-1.33287 1.05863,-1.78931c0.62904,-0.41041 1.37123,-0.61562 2.22657,-0.61562c0.82082,0 1.55918,0.13425 2.21506,0.40274c0.23397,0.09205 0.47753,0.20712 0.73068,0.3452L205.8121,106.87763c-0.55616,-0.3337 -1.21205,-0.55041 -1.96767,-0.65014c-0.23781,-0.03452 -0.46794,-0.05178 -0.69041,-0.05178c-0.51014,0 -0.96082,0.09781 -1.35205,0.29342c-0.45644,0.23014 -0.68466,0.54849 -0.68466,0.95507c0,0.42959 0.28959,0.74411 0.86877,0.94356c0.26082,0.09205 0.55616,0.16685 0.88603,0.22438L203.89621,108.77051c0.86301,0.1611 1.46137,0.34329 1.79507,0.54657c0.3337,0.20329 0.58014,0.43055 0.73931,0.68178c0.15918,0.25123 0.23877,0.58493 0.23877,1.00109c0,0.41616 -0.09781,0.78918 -0.29342,1.11904c-0.19562,0.32986 -0.45644,0.60219 -0.78246,0.81698c-0.63671,0.42575 -1.44794,0.63863 -2.43369,0.63863c-0.92055,0 -1.78548,-0.19945 -2.59479,-0.59836c-0.26466,-0.13041 -0.51014,-0.28 -0.73644,-0.44877L200.33485,111.61845z"></path>
        <polygon points="234.29,106.27 231.23,106.27 231.23,105.31 238.42,105.31 238.42,106.27 235.36,106.27 235.36,113.45 234.29,113.45 234.29,106.27"></polygon>
        <path x="0" y="0" d="M259.80582,112.42105c0,0 -0.10021,-0.09062 -0.30062,-0.27185c-0.20041,-0.18123 -0.41664,-0.52308 -0.6487,-1.02555c-0.23205,-0.50246 -0.34808,-1.00877 -0.34808,-1.5189c0,-0.51014 0.05274,-0.95219 0.15822,-1.32616c0.10548,-0.37397 0.25603,-0.71918 0.45164,-1.03561c0.19562,-0.31644 0.42959,-0.60123 0.70192,-0.85438c0.27233,-0.25315 0.57534,-0.46794 0.90904,-0.64438c0.69808,-0.36822 1.45945,-0.55233 2.28411,-0.55233c0.79014,0 1.52657,0.17644 2.20931,0.52931c0.66356,0.3452 1.19287,0.82466 1.58794,1.43835c0.40274,0.64055 0.60411,1.35205 0.60411,2.13452c0,1.2389 -0.43726,2.26493 -1.31178,3.07808c-0.54849,0.51014 -1.21013,0.86109 -1.98493,1.05287c-0.3874,0.09589 -0.83616,0.14384 -1.3463,0.14384c-0.51014,0 -1.03178,-0.10068 -1.56493,-0.30205c-0.53315,-0.20137 -1.00014,-0.48329 -1.40096,-0.84575z M260.59404,107.04448c0,0 -0.07431,0.07 -0.22294,0.21c-0.14863,0.14 -0.30829,0.40178 -0.47897,0.78534c-0.17068,0.38356 -0.25603,0.80548 -0.25603,1.26575c0,0.46027 0.08822,0.89178 0.26466,1.29452c0.17644,0.40274 0.41808,0.7537 0.72493,1.05287c0.65589,0.64055 1.45178,0.96082 2.38767,0.96082c0.90904,0 1.68,-0.29918 2.31287,-0.89753c0.64055,-0.60603 0.96082,-1.35589 0.96082,-2.24959c0,-0.60603 -0.15342,-1.16794 -0.46027,-1.68575c-0.28767,-0.49096 -0.69233,-0.88603 -1.21397,-1.1852c-0.51397,-0.29918 -1.03945,-0.44877 -1.57644,-0.44877c-0.53699,0 -1.00397,0.07959 -1.40096,0.23877c-0.39699,0.15918 -0.74411,0.37877 -1.04137,0.65877z"></path>
        <path x="0" y="0" d="M295.52342,107.81544c0,1.20822 -0.55616,2.04246 -1.66849,2.50274L295.40259,113.45378L294.16561,113.45378L292.76753,110.61735c-0.37973,0.05753 -0.77671,0.0863 -1.19096,0.0863L289.45932,110.70365L289.45932,113.45378L288.39493,113.45378L288.39493,105.30695L291.73767,105.30695c1.20438,0 2.10383,0.16493 2.69835,0.49479c0.72493,0.3989 1.0874,1.07014 1.0874,2.0137z M291.72041,109.73708c0.85918,0 1.49589,-0.1189 1.91013,-0.35671c0.51014,-0.29534 0.7652,-0.79397 0.7652,-1.49589c0,-0.91288 -0.59068,-1.43068 -1.77205,-1.55342c-0.34137,-0.03836 -0.69233,-0.05753 -1.05287,-0.05753L289.45932,106.27352L289.45932,109.73708L291.72041,109.73708z"></path>
        <polygon points="320.04,105.31 320.36,105.31 323.95,109.25 327.54,105.31 327.88,105.31 328.57,113.45 327.53,113.45 327.01,107.33 323.96,110.7 323.85,110.7 320.9,107.38 320.44,113.45 319.41,113.45 320.04,105.31"></polygon>
      </g>
    </g>
    <g></g>
  </g>
</g>
</svg>